<?xml version="1.0" standalone="no"?><!DOCTYPE svg PUBLIC "-//W3C//DTD SVG 1.1//EN" "http://www.w3.org/Graphics/SVG/1.1/DTD/svg11.dtd"><svg t="1539142968073" class="icon" style="" viewBox="0 0 1024 1024" version="1.1" xmlns="http://www.w3.org/2000/svg" p-id="1079" xmlns:xlink="http://www.w3.org/1999/xlink" width="200" height="200"><defs><style type="text/css"></style></defs><path d="M66.83136 828.48768v-31.79008c0-52.6592 42.69056-95.36 95.34976-95.36h699.28448c52.66944 0 95.36512 42.7008 95.36512 95.36v31.79008H66.83136z m317.8496-190.72H257.536v-63.56992h173.35296a124.69248 124.69248 0 0 0 17.36704-63.57504c0-46.93504-25.73312-87.48544-63.57504-109.50656v-3.55328c-38.73792-34.91328-63.5648-84.95616-63.5648-141.21984 0-105.33888 85.38112-190.72 190.70976-190.72 105.33376 0 190.72 85.38112 190.72 190.72 0 56.26368-24.82176 106.30656-63.57504 141.21984v3.55328c-37.8368 22.02112-63.5648 62.57152-63.5648 109.50656 0 23.26528 6.37952 44.928 17.37216 63.57504h173.34272v63.56992h-381.44z m413.21984 317.86496H225.75616c-41.46176 0-76.38528-26.624-89.51808-63.58016h751.1808c-13.13792 36.95616-48.05632 63.58016-89.51808 63.58016z" fill="" p-id="1080"></path></svg>