<?xml version="1.0" standalone="no"?><!DOCTYPE svg PUBLIC "-//W3C//DTD SVG 1.1//EN" "http://www.w3.org/Graphics/SVG/1.1/DTD/svg11.dtd"><svg t="1533892414191" class="icon" style="" viewBox="0 0 1024 1024" version="1.1" xmlns="http://www.w3.org/2000/svg" p-id="7989" xmlns:xlink="http://www.w3.org/1999/xlink" width="200" height="200"><defs><style type="text/css"></style></defs><path d="M748.379555 196.952576c21.734693 0 39.43578-17.701088 39.43578-39.43075V39.428236C787.815335 17.711147 770.114248 0 748.379555 0c-21.724634 0-39.430751 17.711147-39.430751 39.428236V157.521826c0 21.729663 17.706117 39.430751 39.430751 39.43075zM275.811563 196.952576c21.729663 0 39.44081-17.701088 39.44081-39.43075V39.428236C315.252373 17.711147 297.541226 0 275.811563 0 254.094474 0 236.383327 17.711147 236.383327 39.428236V157.521826c0 21.729663 17.711147 39.430751 39.428236 39.43075z" p-id="7990"></path><path d="M1023.597645 905.90641V196.952576c0-65.176416-52.917174-118.083531-118.093589-118.08353h-78.667869V157.521826c0 43.456811-35.402175 78.662839-78.853957 78.662839-43.652959 0-78.858987-35.206027-78.858987-78.662839V78.869046H354.072048V157.521826c0 43.456811-35.206027 78.662839-78.662839 78.662839-43.446753 0-78.65278-35.206027-78.65278-78.662839V78.869046H118.09359C52.917174 78.869046 0 131.776161 0 196.952576v708.953834c0 65.176416 52.917174 118.09359 118.09359 118.09359h787.815335c65.176416 0 118.09359-52.917174 118.09359-118.09359h-0.40487z m-78.265513 0c0 21.727148-17.701088 39.428236-39.425722 39.428236h-787.609128c-21.729663 0-39.430751-17.701088-39.430751-39.428236V354.476917H945.332132v551.429493z" p-id="7991"></path><path d="M451.645553 844.745996c7.642223 7.644737 19.715375 13.478879 30.578949 13.47888 10.866089 0 21.729663-6.840028 28.773384-17.1051L744.356009 497.3128c7.244898-10.863574 4.425901-25.755724-6.435159-33.19174l-39.641987-26.759096c-10.848486-7.44356-25.740636-4.624563-33.191739 6.239011L471.358413 729.069049l-88.917851-88.917852c-9.254156-9.254156-24.54866-9.254156-33.802816 0L314.850018 673.943954a24.267012 24.267012 0 0 0 0 33.996449l136.795535 136.805593z" p-id="7992"></path></svg>
