<?xml version="1.0" standalone="no"?><!DOCTYPE svg PUBLIC "-//W3C//DTD SVG 1.1//EN" "http://www.w3.org/Graphics/SVG/1.1/DTD/svg11.dtd"><svg t="1537932100938" class="icon" style="" viewBox="0 0 1024 1024" version="1.1" xmlns="http://www.w3.org/2000/svg" p-id="5940" xmlns:xlink="http://www.w3.org/1999/xlink" width="200" height="200"><defs><style type="text/css"></style></defs><path d="M207.963 189.234c19.737-19.685 52.063-19.685 71.592 0L541.067 450.69c19.685 19.74 19.685 51.934 0 71.595-19.582 19.788-51.805 19.788-71.595 0l-261.51-261.329c-19.582-19.738-19.582-51.909 0-71.723z m688.588 258.09H577.123c16.784 31.056 12.224 70.766-13.987 97.029-31.912 31.886-83.77 31.886-115.627 0l-96.979-97.029H121.76c-32.017 0-58.333 26.29-58.333 58.333 0 32.065 26.316 58.357 58.333 58.357h13.986l134.59 394.544H755.848l134.588-394.544h6.114c32.118 0 58.33-26.291 58.33-58.357 0-32.042-26.212-58.333-58.33-58.333zM275.412 600.796h470.8c16.476 0 29.84 13.47 29.84 29.942 0 16.477-13.365 29.944-29.84 29.944h-470.8c-16.473 0-29.942-13.467-29.942-29.944 0-16.473 13.469-29.942 29.942-29.942z m65.793 237.473h342.222c16.369 0 29.838 13.572 29.838 30.045 0 16.474-13.47 29.943-29.838 29.943H341.205c-16.423 0-29.944-13.469-29.944-29.943 0-16.473 13.52-30.045 29.944-30.045z m-32.897-116.872h410.965c16.475 0 29.945 13.572 29.945 30.15 0 16.474-13.47 29.84-29.945 29.84H308.308c-16.475 0-29.788-13.367-29.788-29.84 0-16.578 13.313-30.15 29.788-30.15zM544.692 62.26v170.799H459.32l170.748 170.773 170.85-170.773h-85.374V62.26H544.692z" p-id="5941"></path></svg>