<?xml version="1.0" standalone="no"?><!DOCTYPE svg PUBLIC "-//W3C//DTD SVG 1.1//EN" "http://www.w3.org/Graphics/SVG/1.1/DTD/svg11.dtd"><svg t="1538270235655" class="icon" style="" viewBox="0 0 1024 1024" version="1.1" xmlns="http://www.w3.org/2000/svg" p-id="14422" xmlns:xlink="http://www.w3.org/1999/xlink" width="128" height="128"><defs><style type="text/css"></style></defs><path d="M1016.149333 353.28L535.893333 10.24c-13.994667-9.898667-32.768-9.898667-45.397333 0L8.533333 353.28c-15.701333 10.922667-7.850667 35.498667 11.946667 35.498667h96.938667v612.693333c0 10.922667 8.874667 19.797333 19.797333 19.797333h750.933333c10.922667 0 19.797333-8.874667 19.797334-19.797333V388.778667h96.938666c18.432 0 26.282667-24.917333 11.264-35.498667zM670.378667 862.890667h-316.074667v-79.189334h316.074667v79.189334z m0-158.037334h-316.074667v-79.189333h316.074667v79.189333z m0-158.037333h-316.074667V467.626667h316.074667v79.189333z" p-id="14423"></path></svg>