<?xml version="1.0" standalone="no"?><!DOCTYPE svg PUBLIC "-//W3C//DTD SVG 1.1//EN" "http://www.w3.org/Graphics/SVG/1.1/DTD/svg11.dtd"><svg t="1535596727932" class="icon" style="" viewBox="0 0 1024 1024" version="1.1" xmlns="http://www.w3.org/2000/svg" p-id="43945" xmlns:xlink="http://www.w3.org/1999/xlink" width="200" height="200"><defs><style type="text/css"></style></defs><path d="M910.919348 140.875035h-107.51977v173.128772H218.623688V140.875035H113.078772A39.570201 39.570201 0 0 0 73.142857 180.079523v804.71599c0 21.650239 17.846819 39.204487 39.935915 39.204487h797.840576c22.089096 0 39.935914-17.554248 39.935914-39.204487V180.079523a39.570201 39.570201 0 0 0-39.935914-39.204488z m-88.648953 335.724995L476.159136 892.63571c1.609139 5.119989-6.21713 5.924559-11.483404 1.682282L212.918558 691.93214a11.995403 11.995403 0 0 1-1.755425-17.042249l41.98391-50.468463a12.507402 12.507402 0 0 1 17.407963-1.755425l191.048733 155.20881L757.612248 422.035576c4.242277-7.167985 12.068546-7.899412 17.33482-3.657135l48.786181 39.058202c5.266274 4.242277 8.338268 8.191982-1.462854 19.163387z m-160.475085-386.193458V58.516355C661.79531 26.260424 635.098224 0.002194 602.184009 0.002194h-180.66247a59.099302 59.099302 0 0 0-59.611301 58.514161v31.890217h-70.143849v157.91509h438.856202v-157.988233h-68.754138zM512.145345 190.173215a65.243289 65.243289 0 0 1-65.82843-64.585004c0-35.693638 29.476508-64.658147 65.82843-64.658147s65.82843 28.964509 65.82843 64.658147c0 40.959912-29.476508 64.585004-65.82843 64.585004z" p-id="43946"></path></svg>