<svg class="icon" viewBox="0 0 1024 1024" xmlns="http://www.w3.org/2000/svg" width="200" height="200"><defs><style/></defs><path d="M357.337 29H84.098C37.7 29 1.611 65.086 1.611 111.485v273.239c0 46.399 36.088 82.487 82.487 82.487h273.239c46.399 0 82.487-36.088 82.487-82.487V111.486C442.402 65.087 403.736 29 357.337 29zm350.57 425.323c20.622 20.622 43.821 28.355 69.598 28.355 25.778 0 51.555-10.31 69.599-28.355L988.879 312.55c38.665-38.666 38.665-103.11 0-141.775L847.104 29C808.438-9.666 743.995-9.666 705.329 29L568.71 170.774c-38.665 38.666-38.665 103.109 0 141.775l139.198 141.774zm-85.065-226.839L764.617 85.709c2.577-5.155 10.31-7.733 15.466-7.733 5.156 0 10.311 2.578 15.466 7.733l141.775 141.775c7.733 7.733 7.733 23.2 0 30.933L795.55 400.19c-7.733 7.733-23.2 7.733-30.932 0L622.842 258.417c-10.31-10.311-10.31-23.2 0-30.933zM357.337 585.787H84.098c-46.399 0-82.487 36.088-82.487 82.487v273.239C1.611 987.912 37.7 1024 84.098 1024h273.239c46.399 0 82.487-36.088 82.487-82.487V668.274c2.578-46.399-36.088-82.487-82.487-82.487zm559.365 0H643.464c-46.4 0-82.487 36.088-82.487 82.487v273.239c0 46.399 36.088 82.487 82.487 82.487h273.238c46.4 0 82.487-36.088 82.487-82.487V668.274c0-46.399-36.088-82.487-82.487-82.487z"/></svg>