<?xml version="1.0" standalone="no"?><!DOCTYPE svg PUBLIC "-//W3C//DTD SVG 1.1//EN" "http://www.w3.org/Graphics/SVG/1.1/DTD/svg11.dtd"><svg t="1535596432711" class="icon" style="" viewBox="0 0 1024 1024" version="1.1" xmlns="http://www.w3.org/2000/svg" p-id="31286" xmlns:xlink="http://www.w3.org/1999/xlink" width="200" height="200"><defs><style type="text/css"></style></defs><path d="M574.6202 817.940924h319.075059v-67.686588H574.6202v67.686588z m-191.444217-270.736121h510.519276v-67.681472H383.175983v67.681472z m319.074035-270.731004h191.445241V208.788234H702.250018v67.685565z m255.264755 439.939801v135.36806c0 9.1678-3.1569 17.099447-9.474792 23.794939-6.313799 6.695492-13.793144 10.045797-22.434965 10.045797H96.001471c-8.636704 0-16.116049-3.350304-22.434965-10.045797-6.313799-6.695492-9.470699-14.627139-9.470699-23.794939V716.4136c0-9.1678 3.1569-17.099447 9.470699-23.794939 6.318916-6.700609 13.798261-10.050913 22.434965-10.050914H925.605016c8.641821 0 16.121166 3.350304 22.434965 10.050914 6.317892 6.695492 9.474792 14.627139 9.474792 23.794939z m0-270.736121v135.373177c0 9.157567-3.1569 17.09433-9.474792 23.789822-6.313799 6.695492-13.793144 10.050913-22.434965 10.050914H96.001471c-8.636704 0-16.116049-3.355421-22.434965-10.050914-6.313799-6.695492-9.470699-14.632255-9.470699-23.789822v-135.373177c0-9.162684 3.1569-17.09433 9.470699-23.794939 6.318916-6.695492 13.798261-10.045797 22.434965-10.045797H925.605016c8.641821 0 16.121166 3.350304 22.434965 10.045797 6.317892 6.701632 9.474792 14.632255 9.474792 23.794939z m0-270.729981v135.36806c0 9.162684-3.1569 17.09433-9.474792 23.794939-6.313799 6.695492-13.793144 10.045797-22.434965 10.045797H96.001471c-8.636704 0-16.116049-3.350304-22.434965-10.045797-6.313799-6.700609-9.470699-14.632255-9.470699-23.794939V174.947498c0-9.1678 3.1569-17.09433 9.470699-23.789823 6.318916-6.705726 13.798261-10.050913 22.434965-10.050913H925.605016c8.641821 0 16.121166 3.345188 22.434965 10.050913 6.317892 6.695492 9.474792 14.622022 9.474792 23.789823z m0 0" p-id="31287"></path></svg>
