<?xml version="1.0" standalone="no"?><!DOCTYPE svg PUBLIC "-//W3C//DTD SVG 1.1//EN" "http://www.w3.org/Graphics/SVG/1.1/DTD/svg11.dtd"><svg t="1538270153291" class="icon" style="" viewBox="0 0 1170 1024" version="1.1" xmlns="http://www.w3.org/2000/svg" p-id="9466" xmlns:xlink="http://www.w3.org/1999/xlink" width="146.25" height="128"><defs><style type="text/css"></style></defs><path d="M511.609628 439.453853a170.594875 170.594875 0 1 1-170.448877-176.125839 173.462857 173.462857 0 0 1 170.448877 176.124839z m0 0a170.594875 170.594875 0 1 1-170.448877-176.125839 173.462857 173.462857 0 0 1 170.448877 176.124839zM777.171877 7.6267l-345.227724 214.157588a220.389547 220.389547 0 0 0-90.871401-19.601871 67.904552 67.904552 0 0 0-7.69395 0.291998l274.046194-165.29891 0.584996 0.876994A193.824722 193.824722 0 0 1 777.171877 7.6267z m146.019038 198.65169a208.804624 208.804624 0 0 1-72.468523 158.862953L544.523411 549.458128a242.420402 242.420402 0 0 0-8.396945-235.223449c0-0.291998-0.204999-0.291998-0.291998-0.584997a171.735868 171.735868 0 0 0-17.554884-24.867836 100.409338 100.409338 0 0 0-6.230959-7.606949 229.401488 229.401488 0 0 0-40.227735-36.569759L822.373579 27.226571a207.721631 207.721631 0 0 1 100.817336 179.050819z m101.140333 209.768618l-345.227725 213.86659a220.185549 220.185549 0 0 0-90.871401-19.309873h-7.693949L854.584367 445.597813l0.584996 0.877994a190.869742 190.869742 0 0 1 169.161885-30.4268z m146.019037 198.65269a208.804624 208.804624 0 0 1-72.467522 158.863953L791.682781 957.880436a242.976398 242.976398 0 0 0-8.395944-235.516448s-0.204999-0.291998-0.292998-0.291998a192.361732 192.361732 0 0 0-17.553885-25.159834 95.229372 95.229372 0 0 0-6.231959-7.314952 231.127476 231.127476 0 0 0-40.227734-36.863757l350.552689-217.083569a207.253634 207.253634 0 0 1 100.818335 179.04982zM757.190009 847.875161a170.624875 170.624875 0 1 1-170.535876-176.124839 173.286858 173.286858 0 0 1 170.535876 176.124839z m0 0a170.624875 170.624875 0 1 1-170.535876-176.124839 173.286858 173.286858 0 0 1 170.535876 176.124839z m-416.028258 0a170.624875 170.624875 0 1 1-170.536876-176.124839 173.257858 173.257858 0 0 1 170.536876 176.124839z m0 0a170.624875 170.624875 0 1 1-170.536876-176.124839 173.257858 173.257858 0 0 1 170.536876 176.124839z" p-id="9467"></path></svg>