<?xml version="1.0" standalone="no"?><!DOCTYPE svg PUBLIC "-//W3C//DTD SVG 1.1//EN" "http://www.w3.org/Graphics/SVG/1.1/DTD/svg11.dtd"><svg t="1535597122729" class="icon" style="" viewBox="0 0 1024 1024" version="1.1" xmlns="http://www.w3.org/2000/svg" p-id="69637" xmlns:xlink="http://www.w3.org/1999/xlink" width="200" height="200"><defs><style type="text/css"></style></defs><path d="M512 0C229.023656 0 0 229.023656 0 512s229.023656 512 512 512 512-229.023656 512-512S794.976344 0 512 0z m313.255914 436.576344l-1.101075 1.651613-62.210753 60.55914c-8.258065 9.35914-19.268817 22.021505-36.886021 25.324731-13.763441 2.752688-24.774194-0.550538-33.032259-6.055914v239.483871l-0.550537 3.303226c-2.202151 10.460215-8.258065 20.92043-16.516129 26.976344-12.662366 9.909677-30.27957 10.460215-45.144086 10.460215H389.780645c-11.56129 0-25.324731-0.550538-35.784946-7.156989-6.606452-3.853763-14.864516-12.111828-18.71828-22.572043-3.303226-8.258065-3.303226-17.617204-2.752688-26.425807V518.606452c-2.202151 1.651613-4.954839 2.752688-7.707527 3.853763-13.212903 5.505376-30.830108 2.752688-43.492473-6.055914-4.404301-3.303226-7.707527-6.606452-11.010753-9.909677l-6.606451-6.606452-23.673118-22.572043-13.212904-13.212903c-3.853763-3.303226-7.707527-7.156989-11.56129-11.010753l-3.853763-3.853763-3.303226-3.303226c-4.954839-4.954839-11.56129-10.460215-15.965592-20.369893-2.202151-4.954839-6.606452-14.313978-4.404301-24.774193 3.303226-18.71828 14.864516-29.178495 24.223656-36.886022 3.303226-2.752688 5.505376-4.954839 7.707527-7.707527 2.752688-2.752688 4.954839-5.505376 7.707527-7.707526l104.602151-102.4c4.954839-4.954839 11.56129-11.56129 21.470967-15.415054l15.415054-3.853764s42.941935-2.752688 56.705376 0c4.954839 1.101075 14.313978 6.055914 18.167742 9.35914 6.055914 4.404301 9.909677 9.909677 13.763441 14.864516l1.101075 1.101076c2.752688 3.853763 9.909677 8.808602 16.516129 11.56129 7.707527 3.303226 15.965591 4.954839 26.976345 7.156989l12.662365 0.550538c2.202151 0 5.505376-0.550538 9.35914-1.101076 20.369892-3.853763 28.627957-6.606452 40.189247-16.516129 1.101075-1.101075 2.752688-2.752688 3.853764-4.954838 2.752688-3.303226 6.055914-8.258065 11.010752-11.561291l12.111828-7.707526c2.752688-1.101075 7.707527-2.752688 9.909678-2.752689 4.404301-0.550538 37.987097 0 41.84086 0 15.415054 0 24.774194 1.101075 31.931183 4.954839 7.707527 4.404301 13.763441 9.909677 18.718279 14.864516l97.995699 95.793549c3.853763 4.404301 7.707527 7.707527 11.561291 11.56129 4.404301 4.404301 8.808602 8.258065 13.212903 12.662366l3.303226 3.303225c5.505376 5.505376 12.111828 12.111828 15.965591 23.122581l1.101075 4.404301v4.404301c2.202151 17.617204-7.707527 30.27957-11.56129 34.683871z" p-id="69638"></path></svg>