<?xml version="1.0" standalone="no"?><!DOCTYPE svg PUBLIC "-//W3C//DTD SVG 1.1//EN" "http://www.w3.org/Graphics/SVG/1.1/DTD/svg11.dtd"><svg t="1543394165959" class="icon" style="" viewBox="0 0 1024 1024" version="1.1" xmlns="http://www.w3.org/2000/svg" p-id="20024" xmlns:xlink="http://www.w3.org/1999/xlink" width="200" height="200"><defs><style type="text/css"></style></defs><path d="M926.66649917 21.80150782H97.19541675c-41.42522469 0-75.39390894 33.96868425-75.39390893 75.39390893v829.47108242c0 41.42522469 33.96868425 75.39390894 75.39390893 75.39390893h829.47108242c41.42522469 0 75.39390894-33.96868425 75.39390893-75.39390893V97.19541675c0.13808409-41.42522469-33.96868425-75.39390894-75.39390893-75.39390893zM206.41992587 288.16570258C291.75588874 215.94772754 400.15189333 176.45568 512 176.59376409c111.84810667-0.13808409 220.1060272 39.35396347 305.58007413 111.57193849 16.70817396 14.08457639 17.39859437 39.7682157 1.93317717 55.23363292L715.81210548 447.10048132c-13.11798782 13.11798782-34.10676833 15.18924905-48.74368105 3.8663543-26.37405971-20.43644418-56.61447375-35.34952507-88.78806493-44.04882225-16.98434213-4.41869063-28.85957319-19.19368743-28.72148912-36.45419772l0.13808409-65.31377095c0-18.7794352-12.84181965-36.17802957-31.34508668-39.21587937-10.90864251-1.79509307-22.09345317 1.24275675-30.65466628 8.42312904-8.42312903 7.18037229-13.39415599 17.67476253-13.39415598 28.85957318l0.13808409 67.38503216c0 17.39859437-11.87523108 32.03550709-28.58340503 36.59228182-32.17359118 8.69929718-62.41400519 23.61237808-88.78806494 44.04882226-14.63691274 11.32289475-35.62569324 9.25163351-48.74368105-3.86635431l-103.7011458-103.70114581c-15.6035013-15.6035013-14.91308089-41.42522469 1.79509307-55.50980109z m643.88607576 563.3830558H171.62273712c-20.71261235 0-37.69695447-16.98434213-37.69695446-37.69695447s16.98434213-37.69695447 37.69695446-37.69695446H850.30600163c20.71261235 0 37.69695447 16.98434213 37.69695449 37.69695446 0 20.85069643-16.84625804 37.69695447-37.69695449 37.69695447z" p-id="20025"></path></svg>