<?xml version="1.0" standalone="no"?><!DOCTYPE svg PUBLIC "-//W3C//DTD SVG 1.1//EN" "http://www.w3.org/Graphics/SVG/1.1/DTD/svg11.dtd"><svg t="1535597055536" class="icon" style="" viewBox="0 0 1024 1024" version="1.1" xmlns="http://www.w3.org/2000/svg" p-id="67254" xmlns:xlink="http://www.w3.org/1999/xlink" width="200" height="200"><defs><style type="text/css"></style></defs><path d="M928.63488 793.42933333C864.94549333 743.85294222 681.3696 661.49717333 681.3696 661.49717333L562.17258667 880.64568889l-17.67196445-52.20579556 32.61781333-65.89781333-65.28113777-65.89895111-65.30503111 65.90008889 32.6656 65.89667555-21.05799112 53.44142222-115.88266666-220.38755555S158.70748445 743.87683555 95.01240889 793.42933333c-63.69621333 49.55249778-91.81184 200.01450667-91.81184 200.01450667h1019.05180444c0 0.00113778-18.66638222-141.67153778-93.61635555-200.01223111zM517.90051555 642.66126222c149.60412445-0.23438222 249.33148445-199.23171555 249.33148445-306.34894222 0-107.1104-0.42552889-297.55847111-249.33262222-297.55847111-248.88092445 0-249.33034667 190.47310222-249.33034667 297.58577778 0 107.11608889 99.74556445 306.56284445 249.33148444 306.32163555z m0 0" p-id="67255"></path></svg>