<?xml version="1.0" standalone="no"?><!DOCTYPE svg PUBLIC "-//W3C//DTD SVG 1.1//EN" "http://www.w3.org/Graphics/SVG/1.1/DTD/svg11.dtd"><svg t="1535595830502" class="icon" style="" viewBox="0 0 1024 1024" version="1.1" xmlns="http://www.w3.org/2000/svg" p-id="8365" xmlns:xlink="http://www.w3.org/1999/xlink" width="200" height="200"><defs><style type="text/css"></style></defs><path d="M885.4 788.4c-0.2 12.1-9.9 21.9-22 22.1h-52.8v73.2h126.6c5.9 0.1 11.6-2.1 15.8-6.2 4.2-4.1 6.6-9.7 6.7-15.6V550.4h-74.3v238zM798.6 789.9l-58 45.3c-2.2 1.7-3.7 3.8-4.4 6l-0.4-82.8c0-6-2.4-11.7-6.6-15.9-4.2-4.2-10-6.5-15.9-6.5v-0.1H236.8c-12.4 0-22.3 10-22.3 22.3l1 179.2c0 5.9 2.4 11.7 6.6 15.8 4.2 4.2 10 6.5 15.9 6.4h476.5c5.9 0 11.6-2.3 15.8-6.5 4.2-4.2 6.5-9.9 6.5-15.8l-0.4-90c0.7 2.2 2.2 4.3 4.4 6v-0.1l58 45.3c6.5 5.1 11.8 1.9 11.8-7v-94.8c-0.3-8.8-5.4-11.9-12-6.8z m-174.7 94.6c-20.6 0-37.3-16.7-37.3-37.3 0-20.6 16.7-37.3 37.3-37.3v-0.1c20.6 0 37.3 16.7 37.3 37.3s-16.6 37.4-37.3 37.4zM787.9 64.2s0 0.1 0 0zM296.7 281.6c4.2 4.2 10 6.5 16 6.4H789c5.9 0 11.6-2.3 15.8-6.5 4.2-4.2 6.5-9.9 6.4-15.8l-0.8-179.2c-0.2-12.6-10.1-22.2-22.5-22.3v0.1H311.4c-12.5 0-22.3 10-22.3 22.3l1 179.1c-0.1 6 2.3 11.7 6.6 15.9z m77.6-132.1c7.2-7 16.9-10.9 27-10.7 10-0.2 19.7 3.7 26.9 10.7 7.2 7 11.3 16.6 11.5 26.6-0.4 20.9-17.5 37.5-38.4 37.3v0.1c-21.4 0-38.5-16.7-38.5-37.3 0.1-10.1 4.2-19.7 11.5-26.7zM749.7 399.5s0.1 0 0 0z" p-id="8366"></path><path d="M953.1 482.3c-4.2-4.1-9.9-6.4-15.8-6.3H772.5l-0.2-54.2c-0.2-12.6-10.1-22.2-22.5-22.3v0.1H273.3c-12.5 0-22.3 10-22.3 22.3l0.3 53.1h-89.9c-5.9-0.1-11.6-2.6-15.7-6.9-4.1-4.3-6.4-10.1-6.2-16V229c0-12.7 10-22.9 21.7-22.9h15v14.6c0 9 7.7 12 17.3 7l85.5-45.2v-0.1c9.6-5 9.6-13.3 0-18.3l-85.5-45.2c-9.5-5.1-17.3-1.9-17.3 7v23.3H87c-6 0-11.8 2.3-16.1 6.6-4.3 4.3-6.7 10-6.6 16.1v355.8c0 12.5 9.6 22.8 22.3 22.8h165.1l0.3 50.5c0 6 2.4 11.7 6.6 15.9 4.2 4.2 10 6.5 16 6.4H751c5.9 0 11.6-2.3 15.8-6.5 4.2-4.2 6.5-9.9 6.4-15.8l-0.2-50.6h186.9v-52.5c-0.2-5.9-2.6-11.5-6.8-15.6z m-590 66.3v0.1c-21.4 0-38.5-16.7-38.5-37.3 0.1-10.1 4.3-19.7 11.5-26.7s16.9-10.9 27-10.7c10-0.2 19.7 3.7 26.9 10.7 7.2 7 11.3 16.6 11.5 26.6-0.4 20.9-17.5 37.5-38.4 37.3z" p-id="8367"></path></svg>
