<?xml version="1.0" standalone="no"?><!DOCTYPE svg PUBLIC "-//W3C//DTD SVG 1.1//EN" "http://www.w3.org/Graphics/SVG/1.1/DTD/svg11.dtd"><svg t="1535592914018" class="icon" style="" viewBox="0 0 1024 1024" version="1.1" xmlns="http://www.w3.org/2000/svg" p-id="11398" xmlns:xlink="http://www.w3.org/1999/xlink" width="200" height="200"><defs><style type="text/css"></style></defs><path d="M154.571 95H512c32.901 0 59.571 26.67 59.571 59.571v119.143c0 32.901-26.67 59.571-59.571 59.571H154.571c-32.901 0-59.571-26.67-59.571-59.571V154.571C95 121.67 121.67 95 154.571 95zM690.714 95h178.714C902.33 95 929 121.67 929 154.571v417c0 32.901-26.67 59.571-59.571 59.571H690.714c-32.901 0-59.571-26.67-59.571-59.571v-417c0-32.901 26.67-59.571 59.571-59.571zM154.571 392.863h178.714c32.901 0 59.571 26.67 59.571 59.571v417c0 32.901-26.67 59.571-59.571 59.571H154.571c-32.901 0-59.571-26.67-59.571-59.571v-417c0-32.901 26.67-59.571 59.571-59.571zM512 690.72h357.429c32.901 0 59.571 26.67 59.571 59.571v119.143c0 32.901-26.67 59.571-59.571 59.571H512c-32.901 0-59.571-26.67-59.571-59.571V750.292c0-32.902 26.67-59.572 59.571-59.572z" fill="" p-id="11399"></path></svg>