<?xml version="1.0" standalone="no"?><!DOCTYPE svg PUBLIC "-//W3C//DTD SVG 1.1//EN" "http://www.w3.org/Graphics/SVG/1.1/DTD/svg11.dtd"><svg t="1540536210487" class="icon" style="" viewBox="0 0 1024 1024" version="1.1" xmlns="http://www.w3.org/2000/svg" p-id="2593" xmlns:xlink="http://www.w3.org/1999/xlink" width="200" height="200"><defs><style type="text/css"></style></defs><path d="M451.86048 13.59872C259.79904 36.93568 96.95232 169.84064 36.15744 353.18784c-78.71488 236.36992 26.85952 493.47584 248.85248 606.12608 143.27808 72.58112 310.59968 72.81664 453.65248 0.23552 198.43072-100.864 307.06688-320.26624 266.77248-538.49088C972.67712 242.66752 843.0592 93.25568 671.96928 36.46464 600.33024 12.65664 524.67712 4.88448 451.86048 13.59872z m116.18304 201.25696c124.89728 24.2688 220.34432 121.36448 242.0224 246.26176 7.30112 42.65984 3.5328 98.74432-9.43104 141.62944-23.32672 76.58496-83.89632 146.11456-159.06816 182.64064-52.31616 25.22112-121.83552 34.87744-180.52096 24.75008-95.68256-16.49664-177.21344-77.53728-221.05088-165.43744-40.05888-80.128-40.05888-185.23136 0-265.34912 42.88512-85.54496 120.89344-145.64352 214.21056-164.25984 29.94176-6.12352 83.2-6.12352 113.83808-0.23552z" p-id="2594"></path><path d="M403.54816 286.49472c-29.46048 14.61248-48.31232 28.28288-70.69696 51.13856-42.17856 43.12064-70.46144 107.22304-70.69696 159.5392v14.61248l8.94976 1.41312c38.17472 5.888 41.95328 8.01792 44.07296 26.624 2.3552 21.44256 3.5328 25.4464 8.48896 30.8736 7.0656 7.77216 13.90592 6.35904 23.56224-4.94592l8.48896-9.90208 20.736 9.43104c11.3152 4.94592 23.56224 12.02176 27.3408 15.31904 6.35904 6.13376 6.59456 6.13376 5.18144 28.5184l-1.41312 22.62016 8.00768 8.01792c16.96768 16.96768 26.1632 30.16704 29.46048 42.41408 6.12352 23.0912 4.23936 31.10912-12.25728 54.20032l-7.77216 11.07968 15.79008 4.7104c28.04736 8.2432 46.66368 10.37312 81.54112 8.96 50.19648-1.88416 85.78048-13.19936 127.49824-40.30464 50.19648-32.75776 87.42912-84.8384 104.3968-145.16224 5.65248-20.26496 6.35904-26.15296 6.35904-63.63136 0-37.46816-0.70656-43.35616-6.35904-63.63136-3.5328-12.25728-8.96-28.28288-12.25728-35.34848l-5.888-12.96384v16.49664c0 17.43872 2.11968 30.63808 7.0656 42.65984 4.47488 11.3152 0.94208 18.3808-20.02944 41.23648-23.32672 24.73984-30.40256 37.46816-29.696 53.49376 0.47104 6.13376 0.47104 12.25728 0.23552 13.6704-0.23552 3.29728-8.71424 7.0656-26.624 11.55072-8.2432 2.11968-18.85184 4.94592-23.56224 6.12352-4.94592 1.1776-13.6704 6.35904-19.5584 11.55072-13.6704 11.78624-22.85568 13.6704-43.13088 8.2432-8.72448-2.3552-22.14912-4.7104-29.93152-5.18144-23.808-1.41312-24.75008-1.88416-24.75008-12.25728 0-11.55072 6.12352-19.32288 19.32288-24.97536 29.46048-12.4928 35.81952-15.79008 45.48608-23.79776 11.07968-8.96 21.20704-23.10144 19.08736-26.39872-0.70656-1.1776-7.30112-4.47488-14.848-7.0656-26.63424-9.66656-52.56192-30.40256-69.5296-55.37792-11.3152-16.73216-15.55456-26.39872-18.61632-43.60192-2.59072-13.90592-8.00768-26.39872-12.4928-29.22496-1.41312-0.94208-15.31904-1.64864-30.8736-1.41312-31.10912 0.47104-43.12064-2.59072-48.54784-12.4928-3.29728-6.59456-8.00768-60.33408-5.888-69.04832 0.94208-4.00384 4.7104-7.7824 10.84416-10.84416 5.18144-2.59072 9.43104-5.41696 9.43104-5.888 0-2.82624-7.31136-0.22528-25.92768 8.96z" p-id="2595"></path></svg>