<?xml version="1.0" standalone="no"?><!DOCTYPE svg PUBLIC "-//W3C//DTD SVG 1.1//EN" "http://www.w3.org/Graphics/SVG/1.1/DTD/svg11.dtd"><svg t="1542187388262" class="icon" style="" viewBox="100 100 800 800" version="1.1" xmlns="http://www.w3.org/2000/svg" p-id="1864" xmlns:xlink="http://www.w3.org/1999/xlink" width="200" height="200"><defs><style type="text/css"></style></defs><path d="M912 232v453.3c0 18.3-6.6 34-19.5 47.1-13.1 13.1-28.7 19.5-47.1 19.5H618.6c0 10.3 2.2 21 6.7 32.2s8.8 21.1 13.3 29.6 6.7 14.5 6.7 18.1c0 7.2-2.6 13.5-7.9 18.8s-11.6 7.9-18.8 7.9H405.4c-7.2 0-13.5-2.6-18.8-7.9-5.3-5.3-7.9-11.6-7.9-18.8 0-3.9 2.2-10 6.7-18.3s8.8-18.1 13.3-29.2c4.5-11.1 6.7-21.9 6.7-32.5H178.7c-18.3 0-34-6.5-47.1-19.5-13.1-13.1-19.6-28.7-19.6-47.1V232c0-18.3 6.5-34 19.5-47.1 13.1-13.1 28.7-19.5 47.1-19.5h666.6c18.3 0 34 6.6 47.1 19.5C905.4 198 912 213.7 912 232z m-53.4 346.7V232c0-3.6-1.3-6.7-3.9-9.4-2.6-2.6-5.8-3.9-9.4-3.9H178.7c-3.6 0-6.7 1.3-9.4 3.9-2.6 2.6-3.9 5.8-3.9 9.4v346.6c0 3.6 1.3 6.7 3.9 9.4 2.6 2.6 5.8 3.9 9.4 3.9h666.6c3.6 0 6.7-1.3 9.4-3.9 2.6-2.6 3.9-5.7 3.9-9.3z" p-id="1865"></path></svg>
