<?xml version="1.0" standalone="no"?><!DOCTYPE svg PUBLIC "-//W3C//DTD SVG 1.1//EN" "http://www.w3.org/Graphics/SVG/1.1/DTD/svg11.dtd"><svg t="1535596572411" class="icon" style="" viewBox="0 0 1024 1024" version="1.1" xmlns="http://www.w3.org/2000/svg" p-id="35313" xmlns:xlink="http://www.w3.org/1999/xlink" width="200" height="200"><defs><style type="text/css"></style></defs><path d="M896.356174 134.589217c31.343304 0 56.987826-22.79513 56.987826-50.621217V43.720348H69.186783v40.247652c0 27.826087 25.689043 50.576696 57.032347 50.576696h5.60974c0.044522 122.078609 43.186087 237.30087 151.81913 316.416 9.527652 7.613217 32.189217 25.822609 43.675826 35.795478 8.859826 8.815304 15.805217 17.586087 16.294957 23.81913 1.157565 14.959304-19.678609 33.836522-36.240696 46.302609-126.21913 79.827478-175.415652 202.262261-175.504696 332.577391h-5.654261c-31.343304 0-56.987826 22.750609-56.987826 50.576696v40.247652h884.112696v-40.247652c0-27.826087-25.644522-50.621217-56.987826-50.621217h-5.520696c-0.044522-130.003478-50.176-251.725913-174.970435-330.885566-17.808696-14.157913-38.600348-32.990609-37.39826-47.949913 0.445217-6.233043 7.390609-15.003826 16.250434-23.81913a2169.321739 2169.321739 0 0 1 48.083479-39.312696c105.071304-79.159652 148.034783-192.467478 148.034782-312.854261h5.520696z m-185.388522 235.52s-10.685217 11.353043-34.637913 28.493913c-11.353043 10.24-23.28487 19.634087-35.706435 28.004174-19.72313 17.229913-41.360696 39.757913-45.679304 58.724174h-1.202087c-3.383652 16.205913-9.126957 69.632 48.172522 112.773565 24.665043 18.610087 31.521391 24.397913 30.185739 24.219827l4.229565 3.650782c23.908174 17.14087 34.593391 28.493913 34.593391 28.493913 83.878957 62.508522 92.872348 200.704 93.807305 234.941218h-106.540522c2.80487-87.396174-56.542609-147.144348-67.183304-159.521392-10.729739-12.466087-29.517913-29.785043-72.43687-73.861565s-25.466435-114.910609-16.072348-152.442435c9.349565-37.487304 67.717565-89.933913 88.509218-111.927652 20.791652-22.038261 18.788174-38.110609 18.788174-38.110609H376.164174s-2.048 16.027826 18.743652 38.110609c20.791652 22.038261 79.159652 74.440348 88.553739 111.927652 9.349565 37.531826 26.802087 108.410435-16.116869 152.442435-42.918957 44.076522-61.70713 61.350957-72.43687 73.861565-10.640696 12.377043-69.988174 72.125217-67.138783 159.521392H219.492174c0.890435-34.237217 9.928348-172.432696 93.762783-234.896696 0 0 10.685217-11.397565 34.637913-28.493913 1.380174-1.29113 2.80487-2.493217 4.185043-3.695304-1.335652 0.178087 5.520696-5.609739 30.230261-24.219827 57.254957-43.141565 51.511652-96.612174 48.172522-112.773565H429.189565c-4.318609-18.966261-25.956174-41.494261-45.634782-58.768695a316.104348 316.104348 0 0 1-35.706435-27.959653c-23.952696-17.14087-34.637913-28.493913-34.637913-28.493913-83.567304-62.330435-92.783304-199.813565-93.762783-234.629565h585.238261c-0.979478 34.816-10.24 172.29913-93.762783 234.629565z" p-id="35314"></path></svg>