<svg class="icon" viewBox="0 0 1024 1024" xmlns="http://www.w3.org/2000/svg" width="200" height="200"><defs><style/></defs><path d="M597.217 406.789l.165 25.93-.02-25.93zM554.14 95.449c-12.009-5.663-26.243-4.1-36.687 3.966-.48.401-51.28 39.776-107.332 80.123-97.557 70.15-125.983 81.839-131.726 83.69H169.836c-28.551 0-53.584 11.554-70.58 32.586-14.628 18.057-22.363 41.74-22.363 68.472v295.428c0 26.732 7.735 50.415 22.364 68.472 16.995 21.03 42.029 32.586 70.58 32.586h108.558c5.742 1.851 34.168 13.54 131.726 83.69 56.051 40.347 106.852 79.722 107.332 80.123 10.444 8.065 24.678 9.63 36.688 3.966 11.97-5.606 19.578-17.447 19.578-30.47V125.92c-.001-13.024-7.61-24.865-19.578-30.471zM947.107 511.842v-.005h-.003c-.06-44.6-12.714-88.034-36.56-125.585a237.899 237.899 0 0 0-95.412-85.613c-17.06-8.429-37.927-1.774-46.583 14.891-8.656 16.705-1.825 37.05 15.245 45.477 57.947 28.636 93.928 86.474 93.987 150.993-.06 64.52-36.04 122.357-93.987 150.993-17.07 8.428-23.901 28.772-15.245 45.477 8.655 16.665 29.522 23.32 46.583 14.89a237.899 237.899 0 0 0 95.412-85.612c23.845-37.551 36.5-80.984 36.56-125.585h.003v-.005l-.001-.158v-.158zM761.568 511.837c-.848-24.725-8.083-47.944-20.212-68.295-4.316-10.802-15.345-18.487-28.275-18.487-16.688 0-30.22 12.797-30.22 28.587 0 8.101 3.569 15.41 9.292 20.611 5.43 11.655 8.696 24.382 9.325 37.747-.629 13.365-3.895 26.092-9.325 37.747-5.723 5.201-9.293 12.51-9.293 20.611 0 15.789 13.533 28.587 30.22 28.587 12.931 0 23.96-7.685 28.276-18.487 12.129-20.351 19.364-43.57 20.212-68.295h.015l-.008-.163.008-.163h-.015z"/></svg>