<?xml version="1.0" standalone="no"?><!DOCTYPE svg PUBLIC "-//W3C//DTD SVG 1.1//EN" "http://www.w3.org/Graphics/SVG/1.1/DTD/svg11.dtd"><svg t="1538019156827" class="icon" style="" viewBox="0 0 1024 1024" version="1.1" xmlns="http://www.w3.org/2000/svg" p-id="19279" xmlns:xlink="http://www.w3.org/1999/xlink" width="128" height="128"><defs><style type="text/css"></style></defs><path d="M0 415.744h320v192H0V415.744z m384 0h256v192H384V415.744z m320 0H1024v192h-320V415.744z" fill="#2D92FC" p-id="19280"></path><path d="M0 159.744h320v192H0V159.744z m0 512h320v192H0v-192z m384-512h256v192H384V159.744z m320 0H1024v192h-320V159.744zM384 671.744h256v192H384v-192z m320 0H1024v192h-320v-192z" fill="#AFB9CB" p-id="19281"></path><path d="M421.376 543.744L217.6 340.48l90.624-90.624L512 453.632l203.776-203.776 90.624 90.624-203.776 203.776 203.776 203.776-90.624 90.624-203.776-204.288-203.776 203.776L217.6 747.52l203.776-203.776z" fill="#F24113" p-id="19282"></path></svg>