<?xml version="1.0" standalone="no"?><!DOCTYPE svg PUBLIC "-//W3C//DTD SVG 1.1//EN" "http://www.w3.org/Graphics/SVG/1.1/DTD/svg11.dtd"><svg t="1538033715224" class="icon" style="" viewBox="0 0 1024 1024" version="1.1" xmlns="http://www.w3.org/2000/svg" p-id="3082" xmlns:xlink="http://www.w3.org/1999/xlink" width="128" height="128"><defs><style type="text/css"></style></defs><path d="M842.24 23.04H399.36c-58.88 0-104.96 53.76-104.96 122.88h494.08c28.16 0 51.2 28.16 51.2 61.44v609.28c56.32 0 104.96-53.76 104.96-122.88V145.92c2.56-66.56-43.52-122.88-102.4-122.88z m-156.16 366.08H217.6v-61.44h468.48v61.44z m0 181.76H217.6v-61.44h468.48v61.44zM166.4 207.36c-28.16 0-51.2 28.16-51.2 61.44v668.16c0 33.28 23.04 61.44 51.2 61.44h573.44c28.16 0 51.2-28.16 51.2-61.44V266.24c0-33.28-23.04-61.44-51.2-61.44H166.4z m0 0" p-id="3083"></path></svg>