<?xml version="1.0" standalone="no"?><!DOCTYPE svg PUBLIC "-//W3C//DTD SVG 1.1//EN" "http://www.w3.org/Graphics/SVG/1.1/DTD/svg11.dtd"><svg t="1538028974412" class="icon" style="" viewBox="0 0 1025 1024" version="1.1" xmlns="http://www.w3.org/2000/svg" p-id="12935" xmlns:xlink="http://www.w3.org/1999/xlink" width="128.125" height="128"><defs><style type="text/css"></style></defs><path d="M796.482226 0H113.822375C51.248459 0-0.003677 51.160131-0.003677 113.754492V910.179059c0 62.665921 51.252136 113.820941 113.82094 113.820941h796.414344c62.507467 0 113.759604-51.15502 113.759604-113.820941V227.498762L796.482226 0zM512.001434 910.179059c-96.764156 0-170.685409-73.834358-170.685408-170.659851 0-96.682374 73.921252-170.685409 170.685408-170.685409 96.738599 0 170.65474 74.003035 170.65474 170.685409 0.005111 96.820382-73.911029 170.659851-170.65474 170.659851m170.659852-568.854245H113.750815V113.754492h568.910471v227.570322z" fill="#409eff" p-id="12936"></path></svg>
