<?xml version="1.0" standalone="no"?><!DOCTYPE svg PUBLIC "-//W3C//DTD SVG 1.1//EN" "http://www.w3.org/Graphics/SVG/1.1/DTD/svg11.dtd"><svg t="1538028608259" class="icon" style="" viewBox="0 0 1024 1024" version="1.1" xmlns="http://www.w3.org/2000/svg" p-id="12156" xmlns:xlink="http://www.w3.org/1999/xlink" width="128" height="128"><defs><style type="text/css"></style></defs><path d="M1024 51.136v921.728A51.093333 51.093333 0 0 1 972.864 1024H51.136A51.093333 51.093333 0 0 1 0 972.864V51.136A51.093333 51.093333 0 0 1 51.136 0h921.728A51.093333 51.093333 0 0 1 1024 51.136z m-204.8 644.906667c0-203.221333-137.898667-368.768-307.2-368.085334v-61.226666c0-23.573333-11.050667-45.098667-28.501333-55.210667A40.746667 40.746667 0 0 0 460.8 204.8c-11.050667 0-22.101333 4.053333-30.826667 12.117333l-204.8 185.045334c-12.8 11.456-20.373333 29.610667-20.373333 49.130666s7.573333 37.696 20.373333 49.130667l204.8 184.384c9.301333 8.085333 19.776 12.117333 30.826667 12.117333 7.573333 0 15.701333-2.688 22.698667-6.741333 17.450667-10.752 28.501333-31.616 28.501333-55.168v-61.226667c133.824 0 246.698667 102.272 289.173333 245.610667 11.626667-38.357333 18.026667-80.085333 18.026667-123.157333z" fill="#ffb542" p-id="12157"></path></svg>
