<?xml version="1.0" standalone="no"?><!DOCTYPE svg PUBLIC "-//W3C//DTD SVG 1.1//EN" "http://www.w3.org/Graphics/SVG/1.1/DTD/svg11.dtd"><svg t="1537928705514" class="icon" style="" viewBox="0 0 1024 1024" version="1.1" xmlns="http://www.w3.org/2000/svg" p-id="10539" xmlns:xlink="http://www.w3.org/1999/xlink" width="200" height="200"><defs><style type="text/css"></style></defs><path d="M649.472 191.232V53.76h-91.648v137.472H328.704V53.76H237.056v137.472H53.76V328.704h779.008V191.232h-183.296zM53.76 374.528h229.12v229.12H53.76V374.528z m504.064 64.1536C530.3296 470.7584 512 512 512 557.824c0 13.7472 0 32.0768 4.5824 45.824H328.704V374.528h229.12v64.1536zM53.76 649.472h229.12v229.12H53.76v-229.12z m504.064 27.4944c-82.4832 41.24672-142.0544 109.9776-169.5488 201.6256H328.704v-229.12h206.20288l22.91712 27.4944zM557.824 557.824c0 75.91936 61.54752 137.472 137.472 137.472s137.47712-61.54752 137.47712-137.472S771.2256 420.352 695.296 420.352c-75.91936 0-137.472 61.54752-137.472 137.472z" p-id="10540"></path><path d="M695.296 695.296c-151.2192 0-274.944 123.7248-274.944 274.944h549.888c0-151.2192-123.7248-274.944-274.944-274.944z" p-id="10541"></path></svg>